<mxfile host="app.diagrams.net" modified="2022-08-12T16:47:29.182Z" agent="5.0 (Macintosh)" etag="dk7lo9U21Ka9HIQl4kOi" version="20.2.3" type="github">
  <diagram id="R2lEEEUBdFMjLlhIrx00" name="Page-1">
    <mxGraphModel dx="1554" dy="867" grid="1" gridSize="10" guides="1" tooltips="1" connect="1" arrows="1" fold="1" page="1" pageScale="1" pageWidth="850" pageHeight="1100" math="0" shadow="0" extFonts="Permanent Marker^https://fonts.googleapis.com/css?family=Permanent+Marker">
      <root>
        <mxCell id="0" />
        <mxCell id="1" parent="0" />
        <mxCell id="aJMRBLY9oZxYdTQO_TVv-20" value="" style="rounded=0;whiteSpace=wrap;html=1;fillColor=#f8cecc;strokeColor=#b85450;" vertex="1" parent="1">
          <mxGeometry x="160" y="150" width="530" height="150" as="geometry" />
        </mxCell>
        <mxCell id="aJMRBLY9oZxYdTQO_TVv-19" value="" style="rounded=0;whiteSpace=wrap;html=1;fillColor=#fff2cc;strokeColor=#d6b656;" vertex="1" parent="1">
          <mxGeometry x="472.5" y="415" width="182.5" height="440" as="geometry" />
        </mxCell>
        <mxCell id="aJMRBLY9oZxYdTQO_TVv-16" value="" style="rounded=0;whiteSpace=wrap;html=1;fillColor=#fff2cc;strokeColor=#d6b656;" vertex="1" parent="1">
          <mxGeometry x="195" y="415" width="182.5" height="440" as="geometry" />
        </mxCell>
        <mxCell id="aJMRBLY9oZxYdTQO_TVv-1" value="riftOne Plataform" style="rounded=0;whiteSpace=wrap;html=1;fillColor=#ffe6cc;strokeColor=#d79b00;fontStyle=1" vertex="1" parent="1">
          <mxGeometry x="365" y="50" width="120" height="60" as="geometry" />
        </mxCell>
        <mxCell id="aJMRBLY9oZxYdTQO_TVv-2" value="riftone.io" style="rounded=0;whiteSpace=wrap;html=1;fillColor=#d5e8d4;strokeColor=#82b366;fontStyle=1" vertex="1" parent="1">
          <mxGeometry x="226.25" y="330" width="120" height="60" as="geometry" />
        </mxCell>
        <mxCell id="aJMRBLY9oZxYdTQO_TVv-3" value="riftplay.tv" style="rounded=0;whiteSpace=wrap;html=1;fillColor=#d5e8d4;strokeColor=#82b366;fontStyle=1" vertex="1" parent="1">
          <mxGeometry x="503.75" y="330" width="120" height="60" as="geometry" />
        </mxCell>
        <mxCell id="aJMRBLY9oZxYdTQO_TVv-6" value="&lt;div&gt;store.riftone.io&lt;/div&gt;" style="rounded=0;whiteSpace=wrap;html=1;fontStyle=1" vertex="1" parent="1">
          <mxGeometry x="226.25" y="555" width="120" height="60" as="geometry" />
        </mxCell>
        <mxCell id="aJMRBLY9oZxYdTQO_TVv-7" value="ads.riftone.io" style="rounded=0;whiteSpace=wrap;html=1;fontStyle=1" vertex="1" parent="1">
          <mxGeometry x="226.25" y="625" width="120" height="60" as="geometry" />
        </mxCell>
        <mxCell id="aJMRBLY9oZxYdTQO_TVv-8" value="learning.riftone.io" style="rounded=0;whiteSpace=wrap;html=1;fontStyle=1" vertex="1" parent="1">
          <mxGeometry x="226.25" y="695" width="120" height="60" as="geometry" />
        </mxCell>
        <mxCell id="aJMRBLY9oZxYdTQO_TVv-9" value="wallet.riftone.io" style="rounded=0;whiteSpace=wrap;html=1;fontStyle=1" vertex="1" parent="1">
          <mxGeometry x="226.25" y="485" width="120" height="60" as="geometry" />
        </mxCell>
        <mxCell id="aJMRBLY9oZxYdTQO_TVv-10" value="admin.riftone.io" style="rounded=0;whiteSpace=wrap;html=1;fontStyle=1" vertex="1" parent="1">
          <mxGeometry x="430" y="220" width="120" height="60" as="geometry" />
        </mxCell>
        <mxCell id="aJMRBLY9oZxYdTQO_TVv-11" value="admin.riftplay.tv" style="rounded=0;whiteSpace=wrap;html=1;fontStyle=1" vertex="1" parent="1">
          <mxGeometry x="560" y="220" width="120" height="60" as="geometry" />
        </mxCell>
        <mxCell id="aJMRBLY9oZxYdTQO_TVv-12" value="watch.riftplay.tv" style="rounded=0;whiteSpace=wrap;html=1;fontStyle=1" vertex="1" parent="1">
          <mxGeometry x="503.75" y="490" width="120" height="60" as="geometry" />
        </mxCell>
        <mxCell id="aJMRBLY9oZxYdTQO_TVv-13" value="creator.riftplay.tv" style="rounded=0;whiteSpace=wrap;html=1;fontStyle=1" vertex="1" parent="1">
          <mxGeometry x="503.75" y="560" width="120" height="60" as="geometry" />
        </mxCell>
        <mxCell id="aJMRBLY9oZxYdTQO_TVv-14" value="id.riftone.io" style="rounded=0;whiteSpace=wrap;html=1;fontStyle=1" vertex="1" parent="1">
          <mxGeometry x="300" y="220" width="120" height="60" as="geometry" />
        </mxCell>
        <mxCell id="aJMRBLY9oZxYdTQO_TVv-17" value="Business, Finance, Teaching and meetings" style="text;html=1;strokeColor=none;fillColor=none;align=center;verticalAlign=middle;whiteSpace=wrap;rounded=0;fontColor=#000000;fontStyle=1" vertex="1" parent="1">
          <mxGeometry x="220" y="425" width="132.5" height="40" as="geometry" />
        </mxCell>
        <mxCell id="aJMRBLY9oZxYdTQO_TVv-18" value="Entertainment and content distribution (OTT platform)" style="text;html=1;strokeColor=none;fillColor=none;align=center;verticalAlign=middle;whiteSpace=wrap;rounded=0;fontColor=#000000;fontStyle=1" vertex="1" parent="1">
          <mxGeometry x="497.5" y="425" width="132.5" height="60" as="geometry" />
        </mxCell>
        <mxCell id="aJMRBLY9oZxYdTQO_TVv-22" value="Management and Access" style="text;html=1;strokeColor=none;fillColor=none;align=center;verticalAlign=middle;whiteSpace=wrap;rounded=0;fontColor=#000000;fontStyle=1" vertex="1" parent="1">
          <mxGeometry x="317.5" y="165" width="220" height="30" as="geometry" />
        </mxCell>
        <mxCell id="aJMRBLY9oZxYdTQO_TVv-23" value="meeting.riftone.io" style="rounded=0;whiteSpace=wrap;html=1;fontStyle=1" vertex="1" parent="1">
          <mxGeometry x="226.25" y="770" width="120" height="60" as="geometry" />
        </mxCell>
        <mxCell id="aJMRBLY9oZxYdTQO_TVv-25" value="pay.riftone.io" style="rounded=0;whiteSpace=wrap;html=1;fontStyle=1" vertex="1" parent="1">
          <mxGeometry x="170" y="220" width="120" height="60" as="geometry" />
        </mxCell>
      </root>
    </mxGraphModel>
  </diagram>
</mxfile>
